HIERARCHY
ROOT Hips
{
  OFFSET 13.6774 106.653 -34.4427
  CHANNELS 6 Xposition Yposition Zposition Zrotation Xrotation Yrotation
  JOINT ToSpine
  {
    OFFSET -2.69724 7.43032 -0.144315
    CHANNELS 3 Zrotation Xrotation Yrotation
    JOINT Spine
    {
      OFFSET -0.0310711 10.7595 1.96963
      CHANNELS 3 Zrotation Xrotation Yrotation
      JOINT Spine1
      {
        OFFSET 19.9056 3.91189 0.764692
        CHANNELS 3 Zrotation Xrotation Yrotation
        JOINT Neck
        {
          OFFSET 25.9749 7.03908 -0.130764
          CHANNELS 3 Zrotation Xrotation Yrotation
          JOINT Head
          {
            OFFSET 9.52751 0.295786 -0.907742
            CHANNELS 3 Zrotation Xrotation Yrotation
            End Site
            {
              OFFSET 16.4037 0.713936 2.7358
            }
          }
        }
        JOINT LeftShoulder
        {
          OFFSET 17.7449 4.33886 11.7777
          CHANNELS 3 Zrotation Xrotation Yrotation
          JOINT LeftArm
          {
            OFFSET 0.911315 1.27913 9.80584
            CHANNELS 3 Zrotation Xrotation Yrotation
            JOINT LeftForeArm
            {
              OFFSET 28.6126 1.18197 -3.53199
              CHANNELS 3 Zrotation Xrotation Yrotation
              JOINT LeftHand
              {
                OFFSET 27.5088 0.0218783 0.327423
                CHANNELS 3 Zrotation Xrotation Yrotation
                End Site
                {
                  OFFSET 18.6038 -0.000155887 0.382096
                }
              }
            }
          }
        }
        JOINT RightShoulder
        {
          OFFSET 17.1009 2.89543 -12.2328
          CHANNELS 3 Zrotation Xrotation Yrotation
          JOINT RightArm
          {
            OFFSET 1.4228 0.178766 -10.211
            CHANNELS 3 Zrotation Xrotation Yrotation
            JOINT RightForeArm
            {
              OFFSET 28.733 1.87905 2.64907
              CHANNELS 3 Zrotation Xrotation Yrotation
              JOINT RightHand
              {
                OFFSET 27.4588 0.290562 -0.101845
                CHANNELS 3 Zrotation Xrotation Yrotation
                End Site
                {
                  OFFSET 17.8396 -0.255518 -0.000602873
                }
              }
            }
          }
        }
      }
    }
  }
  JOINT LeftUpLeg
  {
    OFFSET -5.61296 -2.22332 -10.2353
    CHANNELS 3 Zrotation Xrotation Yrotation
    JOINT LeftLeg
    {
      OFFSET 2.56703 -44.7417 -7.93097
      CHANNELS 3 Zrotation Xrotation Yrotation
      JOINT LeftFoot
      {
        OFFSET 3.16933 -46.5642 -3.96578
        CHANNELS 3 Zrotation Xrotation Yrotation
        JOINT LeftToeBase
        {
          OFFSET 0.346054 -6.02161 12.8035
          CHANNELS 3 Zrotation Xrotation Yrotation
          End Site
          {
            OFFSET 0.134235 -1.35082 5.13018
          }
        }
      }
    }
  }
  JOINT RightUpLeg
  {
    OFFSET -5.7928 -1.72406 10.6446
    CHANNELS 3 Zrotation Xrotation Yrotation
    JOINT RightLeg
    {
      OFFSET -2.57161 -44.7178 -7.85259
      CHANNELS 3 Zrotation Xrotation Yrotation
      JOINT RightFoot
      {
        OFFSET -3.10148 -46.5936 -4.03391
        CHANNELS 3 Zrotation Xrotation Yrotation
        JOINT RightToeBase
        {
          OFFSET -0.0828122 -6.13587 12.8035
          CHANNELS 3 Zrotation Xrotation Yrotation
          End Site
          {
            OFFSET -0.131328 -1.35082 5.13018
          }
        }
      }
    }
  }
}
MOTION
Frames: 17
Frame Time: 0.03333333333333333
0.0000 93.1000 0.0000 72.8495 -6.0048 -0.9227 -70.8864 -0.0679 87.5435 94.4072 73.8676 -10.0978 2.0648 20.9727 6.6845 -112.0167 23.7112 158.0432 -170.9548 69.0859 -156.1872 -0.2170 -15.8351 -15.0390 -72.6529 48.7598 -139.2838 13.2845 -4.8753 -105.9468 0.0648 -0.9786 0.0266 -2.0044 7.9828 30.0448 -135.6110 -18.9117 82.0611 17.4283 5.8843 108.3614 -0.0352 0.1764 0.0697 -46.6903 7.5304 87.0068 -3.7873 45.5129 -10.8467 -0.8946 -15.0804 -1.9088 3.6171 -10.5848 10.6516 -47.1869 -18.9091 73.9806 1.9405 28.6724 -9.8498 -4.1509 2.1829 0.0347 -1.1650 -8.0635 13.0248 
0.0000 93.1000 0.0000 72.7984 -6.5216 -0.4018 -70.9402 -0.0123 87.6870 93.2929 73.3456 -9.1466 2.3027 20.8065 6.7555 -110.8165 23.9363 156.5857 -171.0296 69.0654 -155.7504 -0.2237 -15.7754 -15.3446 -72.7395 49.4750 -139.1641 12.8623 -4.8305 -105.9167 0.1452 -1.0376 0.4396 -1.8975 7.9028 30.1742 -134.9091 -18.9417 81.9723 17.5352 5.8427 108.1777 -0.1770 0.3292 0.3584 -47.2809 7.6011 86.8932 -4.3915 45.3700 -10.7964 -1.0351 -14.5702 -1.8334 3.5753 -11.1609 11.3046 -47.1207 -19.2782 73.8347 1.9959 29.2137 -10.0894 -3.4489 2.2390 -0.1983 -0.6039 -7.8842 11.2426 
0.0000 93.1000 0.0000 73.8599 -6.4013 0.5036 -70.9715 0.0223 87.5951 90.9942 73.2106 -6.8393 3.0486 20.5426 6.9832 -111.0215 23.9904 155.8993 -168.7934 70.0639 -158.3218 -0.2668 -15.7970 -15.9180 -72.5553 49.1778 -139.0393 12.7820 -5.0113 -105.9640 -0.0621 -0.8757 0.2073 -2.0133 7.9302 30.4747 -134.1121 -19.1831 81.1240 16.6238 6.6671 108.9863 -0.0857 0.0368 0.0327 -46.8345 7.9376 86.9506 -4.4083 45.2265 -11.2900 -0.7858 -14.9929 -1.7351 2.8639 -10.7782 10.9443 -47.2071 -19.6893 73.0012 2.2331 30.0785 -11.2268 -4.8137 2.2130 0.1684 -0.9031 -9.1507 13.6402 
0.0000 93.1000 0.0000 73.7981 -6.3015 0.2164 -70.8660 -0.1770 87.6063 89.1325 73.2150 -5.7495 3.1600 20.3733 7.2501 -111.3948 24.3022 156.3154 -168.5059 70.5694 -160.6832 -0.2873 -15.9246 -15.9369 -71.9201 48.9864 -139.1313 12.9182 -4.8155 -105.9220 0.0055 -0.9784 -0.0355 -1.9150 7.8863 30.0047 -134.1788 -19.9413 81.1184 17.1645 5.9406 109.3608 -0.2494 0.0809 0.0590 -47.0891 8.0571 86.9110 -4.0595 45.0670 -10.8906 -1.0235 -15.3175 -1.7377 3.2566 -10.8560 10.6929 -47.1047 -19.9342 72.9153 2.0892 30.1434 -11.2755 -4.7197 1.8217 0.1994 -0.7308 -9.3206 13.7335 
0.0000 93.1000 0.0000 73.9725 -6.2727 -0.0609 -70.7476 -0.2430 87.5176 88.8924 73.1922 -4.8040 2.9794 20.2159 6.9267 -112.0028 25.0313 155.8705 -170.3972 71.0541 -158.9672 -0.5830 -15.8060 -15.9989 -71.7765 49.0712 -139.0332 12.8157 -4.9626 -106.2230 -0.1415 -1.1936 0.0263 -1.9905 7.8936 29.9692 -134.3665 -20.2757 81.0777 17.3180 5.9789 109.3541 -0.1403 0.3160 0.1708 -47.3139 8.1583 86.9473 -3.6805 45.2529 -10.8207 -1.0676 -14.8723 -1.7871 3.6490 -11.1531 11.2284 -47.2384 -19.0928 73.1142 2.6157 29.8020 -8.9996 -4.7505 1.7721 -0.1285 -0.5647 -8.9894 11.2799 
0.0000 93.1000 0.0000 73.8759 -6.2051 -0.0078 -70.7879 -0.0704 87.5791 88.7937 73.2303 -4.7250 2.9074 19.9183 6.7361 -111.7285 24.8191 156.0949 -171.2462 71.3398 -158.1682 -0.2734 -15.8032 -15.9588 -71.0052 49.0781 -140.0210 12.9390 -5.2384 -105.8584 0.0418 -1.0881 0.1847 -1.8282 7.6694 30.1812 -133.8453 -20.2315 80.8734 15.9518 6.1582 109.0630 -0.0658 0.4314 0.1717 -47.1392 7.9627 87.3149 -3.8433 45.0731 -10.8160 -1.0027 -14.7748 -1.9618 3.7754 -11.5057 11.7075 -47.7202 -18.8321 73.1468 1.7057 29.7667 -8.6028 -4.4112 2.0200 -0.1362 -0.4283 -8.3045 11.0867 
0.0000 93.1000 0.0000 74.0061 -6.0189 0.3112 -70.8661 -0.3097 87.5204 88.0429 73.0650 -4.8430 2.8801 19.9728 6.9365 -111.8584 24.7976 157.0605 -171.2856 71.2806 -158.0012 -0.3883 -15.8272 -16.2472 -70.9580 49.1320 -140.0568 13.8298 -5.0548 -105.9416 0.1240 -1.2744 0.3649 -1.9237 7.5585 30.7160 -132.9760 -20.1939 80.9400 15.7042 5.7930 108.8714 -0.2590 0.7003 0.2274 -47.2612 8.2662 88.0206 -3.8013 45.1171 -11.1372 -0.9808 -14.4348 -1.9815 3.9682 -11.3704 11.2071 -47.0927 -18.7679 73.0238 1.4014 30.2842 -8.5721 -5.1330 1.9528 -0.3115 0.0300 -10.3462 11.1257 
0.0000 93.1000 0.0000 74.0695 -6.3150 0.1442 -70.8297 -0.4161 87.5852 87.9486 73.0784 -3.9906 2.8458 19.7837 6.5686 -112.8533 24.9520 156.5447 -171.3076 71.2000 -159.2873 -0.4409 -16.0936 -16.3555 -69.9331 49.1570 -140.2157 13.8450 -5.2680 -106.0814 0.1843 -1.1891 0.2948 -1.8959 7.8947 30.2262 -133.1755 -20.1260 80.9201 15.5319 5.4087 109.1196 -0.1722 0.5077 0.3388 -47.1442 7.9528 87.8275 -3.9736 45.2621 -10.9352 -1.0371 -14.8736 -1.9390 3.5471 -10.9283 10.5639 -47.9065 -19.1414 72.5648 1.5723 30.1980 -8.8197 -5.2282 2.3142 -0.3223 0.0057 -10.0500 12.0372 
0.0000 93.1000 0.0000 74.3569 -6.1016 0.0128 -70.8573 -0.6089 87.4884 87.9934 73.1524 -3.9522 2.7699 19.7456 6.2959 -112.9215 25.0670 157.0713 -170.1039 71.0908 -158.9254 -0.5151 -15.8686 -16.1299 -69.9060 48.6029 -141.3150 13.0061 -5.3288 -106.0561 0.1318 -1.4444 0.1771 -2.1800 7.8897 30.2008 -134.0945 -20.0771 79.9138 15.5045 5.0499 108.7182 0.0744 0.3541 -0.0572 -47.2606 7.7846 87.1954 -4.0682 45.3794 -11.3126 -0.8367 -15.0849 -1.8641 3.0607 -10.8727 11.1814 -47.6588 -19.1712 73.0993 1.9293 30.4306 -8.9205 -5.2638 1.6744 -0.1017 0.0539 -10.8280 11.0169 
0.0000 93.1000 0.0000 74.1502 -6.2671 0.2166 -70.9437 -0.2389 87.5130 88.0389 73.0676 -4.0778 2.8810 19.9506 6.6342 -112.8924 25.0797 154.2753 -170.0750 71.2865 -159.5299 -0.3815 -15.8902 -15.9828 -69.6917 48.7913 -141.3738 12.8566 -4.9637 -105.8609 -0.0339 -1.2226 0.2102 -1.9810 7.9554 31.0018 -134.0058 -20.0243 79.9343 15.8685 5.0516 108.7947 -0.0434 0.2747 0.0340 -47.2405 8.0968 88.0860 -4.0385 45.0844 -11.2174 -0.8799 -15.4739 -2.0258 3.3794 -11.0665 11.2356 -47.8587 -19.0025 73.0381 2.2388 30.2919 -9.6930 -5.2630 1.8552 -0.0914 0.1194 -10.5078 11.0928 
0.0000 93.1000 0.0000 74.3056 -6.1680 -0.7587 -70.8850 -0.3576 87.4616 88.0361 73.0303 -4.5797 2.8072 20.0569 6.9520 -111.7755 24.9807 155.6286 -171.8928 71.1332 -157.5017 -0.7124 -15.9552 -16.3091 -69.8893 49.0123 -141.3572 13.1266 -4.9453 -105.9246 -0.0052 -1.4023 0.2901 -2.1914 7.9194 31.0103 -133.4275 -20.4687 79.7251 16.0510 5.1357 108.8757 -0.1029 0.2246 0.0031 -48.0065 7.8431 88.0119 -3.7883 45.3933 -10.9096 -0.9954 -14.9287 -1.7724 3.6441 -10.9679 10.9006 -47.6475 -18.9339 72.8848 2.4769 30.4139 -9.6148 -5.2188 2.1798 -0.4230 -0.0319 -9.9879 10.1485 
0.0000 93.1000 0.0000 74.3348 -6.1667 -0.8538 -70.8667 0.0990 87.6086 87.0942 73.0070 -3.9666 3.1323 20.0211 6.9948 -111.8729 24.9390 155.9342 -172.0065 71.2516 -158.4176 -0.0992 -15.8397 -16.0821 -69.9786 49.2224 -141.4398 13.8114 -5.0550 -106.0332 -0.2129 -0.7160 -0.2112 -1.8320 7.9935 31.1674 -133.3849 -21.0021 79.5168 15.0764 5.3442 108.8129 0.2203 -0.4362 -0.1997 -47.1958 8.0375 87.9396 -4.3634 45.6625 -10.8778 -1.0495 -15.0588 -2.1215 3.0036 -10.9205 10.9306 -47.7110 -18.9199 72.9121 2.3247 30.3767 -9.3222 -5.2714 2.7261 -0.0290 0.0623 -12.0329 9.8329 
0.0000 93.1000 0.0000 74.1526 -6.1779 -0.8833 -70.8968 -0.3706 87.5774 85.8735 73.1669 -1.8764 3.1213 20.2505 6.8964 -112.7939 24.8657 155.3477 -170.3683 71.4040 -158.2588 -0.6633 -15.9848 -16.1277 -70.4099 49.3620 -141.5116 13.8039 -4.9070 -106.0943 -0.0248 -1.1707 -0.0221 -2.1515 7.7824 31.1740 -134.0402 -21.0229 79.8739 14.9844 5.1403 108.8037 -0.3223 -0.1656 -0.1013 -47.3899 8.1306 88.0397 -4.7057 45.4558 -10.6035 -0.8068 -14.8428 -1.8195 3.4011 -11.2956 10.9429 -47.5304 -19.0059 72.9553 2.5596 30.5173 -8.9737 -5.9440 2.0545 -0.1127 -0.1661 -10.9541 11.2288 
0.0000 93.1000 0.0000 74.2558 -6.1548 -1.0284 -70.8607 -0.3043 87.6208 84.0126 73.1198 -0.7644 3.5347 20.5702 6.5023 -112.8073 25.0526 156.1668 -169.7499 71.4353 -159.1288 -0.5109 -16.0743 -16.0887 -70.5853 49.0431 -141.4408 13.2836 -4.9022 -106.0656 -0.1929 -1.1006 0.1450 -2.0698 7.7141 31.1117 -134.0300 -20.5528 80.9605 15.1439 5.0652 108.8831 -0.2872 0.1195 0.0235 -47.5577 7.9631 87.9153 -4.1122 45.1129 -11.0274 -1.0393 -14.8614 -1.8013 3.9010 -10.9071 10.6689 -46.9786 -19.2431 73.1712 1.7404 29.6118 -9.2642 -5.8561 1.8529 -0.1424 0.3079 -10.0236 11.0589 
0.0000 93.1000 0.0000 74.1108 -6.1426 -1.9820 -70.8678 -0.2444 87.5279 84.9859 72.9452 -0.9358 3.5932 20.0736 6.0931 -112.8321 25.0556 156.3835 -170.6608 71.1247 -159.2418 -0.5285 -15.9663 -15.5581 -70.5747 49.2579 -141.5490 12.8989 -5.1071 -105.9857 0.1475 -1.4297 0.4646 -2.1443 7.7646 30.9396 -133.7704 -21.0974 80.9319 15.4285 4.9945 108.8661 -0.2890 0.6766 0.4717 -47.8772 8.1792 87.9318 -3.9544 44.9045 -10.8169 -0.9651 -14.9543 -1.7902 3.4941 -10.6860 10.8828 -47.5202 -19.0264 73.0481 1.8037 29.4495 -9.3234 -5.0049 1.8340 -0.2910 -0.2148 -9.8558 10.2813 
0.0000 93.1000 0.0000 74.2596 -6.2295 -1.6619 -70.8562 -0.1559 87.5189 86.0235 73.1010 -1.7169 3.0477 20.0826 6.6960 -112.8036 24.9074 157.4329 -169.6281 71.3941 -159.1276 -0.2447 -15.8526 -16.0590 -70.6201 48.8840 -139.8727 13.0442 -4.7210 -106.0291 0.1921 -1.1079 0.0093 -2.0707 7.9695 31.2359 -133.0522 -20.8490 81.2037 15.1818 5.5651 108.9142 -0.2035 0.0707 -0.0768 -48.1696 7.9236 87.8315 -4.1317 44.1919 -10.7848 -0.7396 -14.6722 -1.9508 3.5102 -11.1161 11.2754 -47.7503 -19.1114 73.2084 1.6295 29.4454 -9.8174 -4.8026 2.1729 -0.1872 -0.8560 -9.0845 11.7359 
0.0000 93.1000 0.0000 73.9907 -6.3666 -1.5531 -70.8312 -0.0106 87.4879 85.9697 73.1044 -2.8289 3.1646 20.1086 6.7003 -112.7698 24.8468 156.7988 -170.4607 71.2685 -159.2773 0.1728 -15.9208 -16.1080 -70.6191 48.3122 -140.2153 12.9473 -4.0353 -105.8571 0.0910 -0.8193 -0.1838 -1.8786 7.8553 31.2307 -133.0253 -20.3670 81.0446 16.0751 6.1087 108.9055 -0.0280 -0.2585 -0.2215 -48.1814 7.9643 87.9398 -3.9914 44.3726 -11.0023 -0.7846 -14.6401 -2.1160 3.4444 -11.0944 11.0736 -47.9459 -18.8863 74.0438 1.7763 29.4063 -8.5282 -3.8585 1.9346 -0.0331 -1.1270 -7.7225 10.9422 
